<svg width="88" height="39" viewBox="0 0 88 39" fill="none" xmlns="http://www.w3.org/2000/svg">
<path d="M29.4619 37.1754H29.6742L29.8521 37.4095L29.8989 37.4719L30.1642 37.8246H29.952L29.7772 37.5905L29.7335 37.5312L29.4619 37.1754ZM30.2298 36.8757C30.2298 37.0443 30.1994 37.19 30.1385 37.3127C30.0776 37.4355 29.9941 37.5302 29.888 37.5968C29.7819 37.6634 29.6607 37.6967 29.5244 37.6967C29.3881 37.6967 29.2669 37.6634 29.1607 37.5968C29.0546 37.5302 28.9711 37.4355 28.9102 37.3127C28.8494 37.19 28.8189 37.0443 28.8189 36.8757C28.8189 36.7072 28.8494 36.5615 28.9102 36.4388C28.9711 36.316 29.0546 36.2213 29.1607 36.1547C29.2669 36.0881 29.3881 36.0548 29.5244 36.0548C29.6607 36.0548 29.7819 36.0881 29.888 36.1547C29.9941 36.2213 30.0776 36.316 30.1385 36.4388C30.1994 36.5615 30.2298 36.7072 30.2298 36.8757ZM30.0425 36.8757C30.0425 36.7374 30.0194 36.6206 29.9731 36.5254C29.9273 36.4302 29.8651 36.3581 29.7866 36.3092C29.7085 36.2603 29.6211 36.2359 29.5244 36.2359C29.4276 36.2359 29.3399 36.2603 29.2614 36.3092C29.1834 36.3581 29.1212 36.4302 29.0749 36.5254C29.0291 36.6206 29.0062 36.7374 29.0062 36.8757C29.0062 37.0141 29.0291 37.1309 29.0749 37.2261C29.1212 37.3213 29.1834 37.3934 29.2614 37.4423C29.3399 37.4912 29.4276 37.5156 29.5244 37.5156C29.6211 37.5156 29.7085 37.4912 29.7866 37.4423C29.8651 37.3934 29.9273 37.3213 29.9731 37.2261C30.0194 37.1309 30.0425 37.0141 30.0425 36.8757ZM31.604 36.0767H31.7975V37.1348C31.7975 37.2441 31.7717 37.3416 31.7202 37.4274C31.6692 37.5128 31.5972 37.5801 31.5041 37.6295C31.4109 37.6784 31.3017 37.7029 31.1763 37.7029C31.051 37.7029 30.9417 37.6784 30.8486 37.6295C30.7555 37.5801 30.6832 37.5128 30.6317 37.4274C30.5807 37.3416 30.5552 37.2441 30.5552 37.1348V36.0767H30.7487V37.1192C30.7487 37.1972 30.7659 37.2667 30.8002 37.3276C30.8345 37.3879 30.8834 37.4355 30.9469 37.4704C31.0109 37.5047 31.0874 37.5219 31.1763 37.5219C31.2653 37.5219 31.3418 37.5047 31.4057 37.4704C31.4697 37.4355 31.5186 37.3879 31.5524 37.3276C31.5868 37.2667 31.604 37.1972 31.604 37.1192V36.0767ZM32.2495 37.6748H32.0466L32.6334 36.0767H32.8332L33.42 37.6748H33.2171L32.7395 36.3295H32.727L32.2495 37.6748ZM32.3244 37.0505H33.1422V37.2222H32.3244V37.0505ZM33.6689 37.6748V36.0767H33.8624V37.5031H34.6053V37.6748H33.6689ZM35.0985 36.0767V37.6748H34.905V36.0767H35.0985ZM35.3991 36.2484V36.0767H36.5977V36.2484H36.0952V37.6748H35.9016V36.2484H35.3991ZM36.759 36.0767H36.9806L37.4239 36.8227H37.4426L37.8858 36.0767H38.1074L37.53 37.0162V37.6748H37.3365V37.0162L36.759 36.0767ZM39.4002 37.2191C39.3373 37.2191 39.2798 37.2037 39.2278 37.1731C39.1758 37.1418 39.1342 37.1002 39.1029 37.0482C39.0722 36.9962 39.0569 36.9387 39.0569 36.8757C39.0569 36.8123 39.0722 36.7548 39.1029 36.7033C39.1342 36.6513 39.1758 36.6099 39.2278 36.5792C39.2798 36.548 39.3373 36.5324 39.4002 36.5324C39.4637 36.5324 39.5212 36.548 39.5727 36.5792C39.6247 36.6099 39.6661 36.6513 39.6968 36.7033C39.728 36.7548 39.7436 36.8123 39.7436 36.8757C39.7436 36.9387 39.728 36.9962 39.6968 37.0482C39.6661 37.1002 39.6247 37.1418 39.5727 37.1731C39.5212 37.2037 39.4637 37.2191 39.4002 37.2191ZM41.7038 36.4762C41.6944 36.3971 41.6564 36.3358 41.5899 36.2921C41.5233 36.2484 41.4416 36.2265 41.3448 36.2265C41.2741 36.2265 41.2122 36.238 41.1591 36.2608C41.1066 36.2837 41.0655 36.3152 41.0358 36.3553C41.0067 36.3953 40.9921 36.4408 40.9921 36.4918C40.9921 36.5345 41.0023 36.5712 41.0226 36.6018C41.0434 36.632 41.0699 36.6573 41.1022 36.6775C41.1344 36.6973 41.1682 36.7137 41.2036 36.7267C41.239 36.7392 41.2715 36.7493 41.3011 36.7571L41.4634 36.8008C41.5051 36.8118 41.5514 36.8268 41.6023 36.8461C41.6538 36.8653 41.703 36.8916 41.7498 36.9249C41.7972 36.9577 41.8362 36.9998 41.8669 37.0513C41.8976 37.1028 41.9129 37.166 41.9129 37.2409C41.9129 37.3273 41.8903 37.4053 41.845 37.475C41.8003 37.5447 41.7347 37.6002 41.6484 37.6413C41.5625 37.6823 41.4582 37.7029 41.3355 37.7029C41.221 37.7029 41.1219 37.6844 41.0382 37.6475C40.9549 37.6106 40.8894 37.5591 40.8415 37.493C40.7942 37.4269 40.7674 37.3502 40.7611 37.2628H40.9609C40.9661 37.3231 40.9864 37.3731 41.0218 37.4126C41.0577 37.4516 41.1029 37.4808 41.1576 37.5C41.2127 37.5187 41.272 37.5281 41.3355 37.5281C41.4093 37.5281 41.4757 37.5161 41.5345 37.4922C41.5932 37.4678 41.6398 37.4339 41.6741 37.3908C41.7085 37.3471 41.7256 37.2961 41.7256 37.2378C41.7256 37.1848 41.7108 37.1416 41.6812 37.1083C41.6515 37.075 41.6125 37.0479 41.5641 37.0271C41.5157 37.0063 41.4634 36.9881 41.4073 36.9725L41.2106 36.9163C41.0858 36.8804 40.9869 36.8292 40.9141 36.7626C40.8413 36.696 40.8048 36.6089 40.8048 36.5012C40.8048 36.4117 40.829 36.3337 40.8774 36.2671C40.9263 36.2 40.9919 36.148 41.0741 36.111C41.1568 36.0736 41.2491 36.0548 41.3511 36.0548C41.4541 36.0548 41.5456 36.0733 41.6258 36.1102C41.7059 36.1467 41.7693 36.1966 41.8162 36.2601C41.8635 36.3235 41.8885 36.3956 41.8911 36.4762H41.7038ZM42.2966 37.6748H42.0938L42.6806 36.0767H42.8803L43.4671 37.6748H43.2643L42.7867 36.3295H42.7742L42.2966 37.6748ZM42.3716 37.0505H43.1893V37.2222H42.3716V37.0505ZM43.7161 37.6748V36.0767H44.6743V36.2484H43.9096V36.7883H44.6025V36.96H43.9096V37.6748H43.7161ZM45.0058 37.6748V36.0767H45.9703V36.2484H45.1993V36.7883H45.9203V36.96H45.1993V37.5031H45.9827V37.6748H45.0058ZM46.2317 36.2484V36.0767H47.4303V36.2484H46.9277V37.6748H46.7342V36.2484H46.2317ZM47.5916 36.0767H47.8132L48.2564 36.8227H48.2752L48.7184 36.0767H48.94L48.3626 37.0162V37.6748H48.169V37.0162L47.5916 36.0767ZM50.2328 37.2191C50.1699 37.2191 50.1124 37.2037 50.0604 37.1731C50.0083 37.1418 49.9667 37.1002 49.9355 37.0482C49.9048 36.9962 49.8895 36.9387 49.8895 36.8757C49.8895 36.8123 49.9048 36.7548 49.9355 36.7033C49.9667 36.6513 50.0083 36.6099 50.0604 36.5792C50.1124 36.548 50.1699 36.5324 50.2328 36.5324C50.2963 36.5324 50.3538 36.548 50.4053 36.5792C50.4573 36.6099 50.4986 36.6513 50.5293 36.7033C50.5606 36.7548 50.5762 36.8123 50.5762 36.8757C50.5762 36.9387 50.5606 36.9962 50.5293 37.0482C50.4986 37.1002 50.4573 37.1418 50.4053 37.1731C50.3538 37.2037 50.2963 37.2191 50.2328 37.2191ZM51.6624 37.6748V36.0767H52.2024C52.3272 36.0767 52.4297 36.098 52.5098 36.1407C52.5899 36.1828 52.6492 36.2408 52.6877 36.3147C52.7262 36.3886 52.7455 36.4726 52.7455 36.5667C52.7455 36.6609 52.7262 36.7444 52.6877 36.8172C52.6492 36.8901 52.5902 36.9473 52.5106 36.9889C52.431 37.03 52.3293 37.0505 52.2055 37.0505H51.7685V36.8757H52.1993C52.2846 36.8757 52.3532 36.8633 52.4053 36.8383C52.4578 36.8133 52.4958 36.7779 52.5192 36.7322C52.5431 36.6859 52.5551 36.6307 52.5551 36.5667C52.5551 36.5027 52.5431 36.4468 52.5192 36.399C52.4953 36.3511 52.457 36.3142 52.4045 36.2882C52.3519 36.2616 52.2825 36.2484 52.1961 36.2484H51.8559V37.6748H51.6624ZM52.4146 36.9569L52.8079 37.6748H52.5832L52.1961 36.9569H52.4146ZM53.068 37.6748V36.0767H54.0324V36.2484H53.2615V36.7883H53.9825V36.96H53.2615V37.5031H54.0449V37.6748H53.068ZM54.3813 37.6748V36.0767H54.5748V37.5031H55.3177V37.6748H54.3813ZM55.8108 36.0767V37.6748H55.6173V36.0767H55.8108ZM56.2644 37.6748H56.0615L56.6483 36.0767H56.8481L57.4349 37.6748H57.232L56.7544 36.3295H56.742L56.2644 37.6748ZM56.3393 37.0505H57.1571V37.2222H56.3393V37.0505ZM57.6838 37.6748V36.0767H58.2425C58.3539 36.0767 58.4457 36.0959 58.518 36.1344C58.5903 36.1724 58.6441 36.2236 58.6795 36.2882C58.7149 36.3521 58.7326 36.4232 58.7326 36.5012C58.7326 36.5699 58.7204 36.6266 58.6959 36.6713C58.672 36.716 58.6402 36.7514 58.6007 36.7774C58.5617 36.8034 58.5193 36.8227 58.4735 36.8352V36.8508C58.5224 36.8539 58.5716 36.8711 58.621 36.9023C58.6704 36.9335 58.7118 36.9782 58.7451 37.0365C58.7784 37.0948 58.795 37.166 58.795 37.2503C58.795 37.3304 58.7768 37.4025 58.7404 37.4665C58.704 37.5304 58.6465 37.5812 58.5679 37.6186C58.4894 37.6561 58.3872 37.6748 58.2613 37.6748H57.6838ZM57.8773 37.5031H58.2613C58.3877 37.5031 58.4774 37.4787 58.5305 37.4298C58.5841 37.3804 58.6109 37.3205 58.6109 37.2503C58.6109 37.1962 58.5971 37.1463 58.5695 37.1005C58.5419 37.0542 58.5026 37.0172 58.4517 36.9897C58.4007 36.9616 58.3403 36.9475 58.2706 36.9475H57.8773V37.5031ZM57.8773 36.779H58.2363C58.2946 36.779 58.3471 36.7675 58.3939 36.7446C58.4413 36.7218 58.4787 36.6895 58.5063 36.6479C58.5344 36.6063 58.5484 36.5574 58.5484 36.5012C58.5484 36.431 58.524 36.3714 58.4751 36.3225C58.4262 36.2731 58.3487 36.2484 58.2425 36.2484H57.8773V36.779ZM59.3065 36.0767V37.6748H59.113V36.0767H59.3065ZM59.6945 37.6748V36.0767H59.8881V37.5031H60.6309V37.6748H59.6945ZM61.1241 36.0767V37.6748H60.9306V36.0767H61.1241ZM61.4247 36.2484V36.0767H62.6233V36.2484H62.1208V37.6748H61.9273V36.2484H61.4247ZM62.7847 36.0767H63.0063L63.4495 36.8227H63.4682L63.9115 36.0767H64.1331L63.5556 37.0162V37.6748H63.3621V37.0162L62.7847 36.0767Z" fill="#6B7280"/>
<path d="M18.23 32.4363V29.4281H18.866V31.9119H20.1556V32.4363H18.23ZM21.2129 29.4281V32.4363H20.5768V29.4281H21.2129ZM23.7308 30.4005C23.7103 30.329 23.6814 30.2658 23.6442 30.211C23.607 30.1552 23.5614 30.1082 23.5076 30.07C23.4547 30.0308 23.394 30.0009 23.3254 29.9804C23.2579 29.9598 23.183 29.9495 23.1007 29.9495C22.947 29.9495 22.8118 29.9877 22.6953 30.0641C22.5797 30.1405 22.4897 30.2516 22.425 30.3975C22.3604 30.5425 22.3281 30.7197 22.3281 30.9293C22.3281 31.1388 22.3599 31.317 22.4236 31.4639C22.4872 31.6108 22.5773 31.7229 22.6938 31.8003C22.8104 31.8767 22.9479 31.9149 23.1066 31.9149C23.2505 31.9149 23.3734 31.8894 23.4753 31.8385C23.5781 31.7866 23.6564 31.7136 23.7103 31.6196C23.7651 31.5256 23.7925 31.4145 23.7925 31.2862L23.9218 31.3053H23.1462V30.8264H24.4051V31.2054C24.4051 31.4698 24.3492 31.697 24.2376 31.887C24.126 32.0759 23.9722 32.2219 23.7764 32.3247C23.5805 32.4265 23.3563 32.4774 23.1036 32.4774C22.8216 32.4774 22.5739 32.4153 22.3604 32.2909C22.1469 32.1655 21.9805 31.9878 21.861 31.7577C21.7425 31.5266 21.6833 31.2524 21.6833 30.9351C21.6833 30.6913 21.7185 30.4739 21.789 30.283C21.8605 30.091 21.9604 29.9285 22.0887 29.7953C22.2169 29.6621 22.3663 29.5608 22.5367 29.4912C22.707 29.4217 22.8916 29.387 23.0904 29.387C23.2608 29.387 23.4194 29.4119 23.5663 29.4619C23.7132 29.5108 23.8435 29.5804 23.957 29.6704C24.0716 29.7605 24.1651 29.8678 24.2376 29.9921C24.3101 30.1155 24.3566 30.2516 24.3771 30.4005H23.7308ZM24.8828 32.4363V29.4281H25.5188V30.6693H26.8099V29.4281H27.4445V32.4363H26.8099V31.1937H25.5188V32.4363H24.8828ZM27.8543 29.9525V29.4281H30.3249V29.9525H29.4039V32.4363H28.7753V29.9525H27.8543ZM32.5998 32.4804C32.3922 32.4804 32.213 32.4432 32.0622 32.3687C31.9114 32.2943 31.7954 32.1935 31.7141 32.0662C31.6338 31.9379 31.5937 31.7949 31.5937 31.6372C31.5937 31.5197 31.6172 31.4155 31.6642 31.3244C31.7112 31.2333 31.7768 31.1496 31.861 31.0732C31.9452 30.9958 32.0431 30.919 32.1548 30.8426L32.7379 30.4592C32.8133 30.4112 32.8686 30.3608 32.9039 30.3079C32.9391 30.2541 32.9568 30.1958 32.9568 30.1331C32.9568 30.0734 32.9328 30.0181 32.8848 29.9672C32.8368 29.9162 32.7687 29.8913 32.6806 29.8922C32.6219 29.8922 32.5709 29.9055 32.5278 29.9319C32.4848 29.9574 32.451 29.9911 32.4265 30.0333C32.403 30.0744 32.3912 30.1204 32.3912 30.1713C32.3912 30.234 32.4089 30.2976 32.4441 30.3623C32.4794 30.4269 32.5264 30.4955 32.5851 30.5679C32.6439 30.6394 32.708 30.7168 32.7776 30.8L34.2038 32.4363H33.5516L32.3619 31.1114C32.2835 31.0223 32.2052 30.9293 32.1268 30.8323C32.0495 30.7344 31.9849 30.6306 31.933 30.5209C31.8811 30.4103 31.8551 30.2903 31.8551 30.161C31.8551 30.0151 31.8889 29.8839 31.9565 29.7674C32.025 29.6509 32.121 29.5588 32.2444 29.4912C32.3677 29.4227 32.5117 29.3884 32.6762 29.3884C32.8368 29.3884 32.9754 29.4212 33.0919 29.4868C33.2094 29.5515 33.2995 29.6376 33.3622 29.7454C33.4258 29.8521 33.4576 29.9696 33.4576 30.0979C33.4576 30.2399 33.4224 30.3686 33.3519 30.4842C33.2824 30.5988 33.1844 30.7016 33.0581 30.7927L32.4441 31.2348C32.3609 31.2955 32.2992 31.3577 32.259 31.4213C32.2199 31.484 32.2003 31.5442 32.2003 31.602C32.2003 31.6735 32.2179 31.7376 32.2532 31.7944C32.2884 31.8512 32.3384 31.8963 32.403 31.9296C32.4676 31.9619 32.5435 31.978 32.6307 31.978C32.7364 31.978 32.8407 31.954 32.9435 31.9061C33.0473 31.8571 33.1413 31.7881 33.2256 31.6989C33.3108 31.6089 33.3788 31.5021 33.4297 31.3787C33.4806 31.2553 33.5061 31.1187 33.5061 30.9689H34.0246C34.0246 31.153 34.0045 31.319 33.9644 31.4669C33.9242 31.6137 33.8684 31.742 33.7969 31.8517C33.7255 31.9604 33.6437 32.0495 33.5516 32.119C33.5223 32.1376 33.4939 32.1553 33.4664 32.1719C33.439 32.1886 33.4106 32.2062 33.3813 32.2248C33.2696 32.3149 33.1448 32.38 33.0067 32.4202C32.8696 32.4603 32.734 32.4804 32.5998 32.4804ZM35.4336 32.4363V29.4281H36.6205C36.8486 29.4281 37.043 29.4717 37.2036 29.5588C37.3642 29.645 37.4866 29.7649 37.5708 29.9187C37.656 30.0714 37.6986 30.2477 37.6986 30.4475C37.6986 30.6472 37.6555 30.8235 37.5693 30.9763C37.4832 31.129 37.3583 31.248 37.1948 31.3332C37.0322 31.4184 36.8354 31.461 36.6043 31.461H35.8478V30.9513H36.5015C36.6239 30.9513 36.7247 30.9302 36.8041 30.8881C36.8844 30.845 36.9441 30.7858 36.9833 30.7104C37.0234 30.634 37.0435 30.5464 37.0435 30.4475C37.0435 30.3476 37.0234 30.2604 36.9833 30.186C36.9441 30.1106 36.8844 30.0523 36.8041 30.0112C36.7238 29.9691 36.6219 29.9481 36.4985 29.9481H36.0696V32.4363H35.4336ZM38.1117 32.4363V29.4281H38.7477V31.9119H40.0374V32.4363H38.1117ZM42.3167 29.4281H42.9527V31.3817C42.9527 31.601 42.9003 31.7929 42.7955 31.9575C42.6917 32.122 42.5463 32.2503 42.3593 32.3423C42.1723 32.4334 41.9544 32.4789 41.7057 32.4789C41.4559 32.4789 41.2376 32.4334 41.0505 32.3423C40.8635 32.2503 40.7181 32.122 40.6143 31.9575C40.5105 31.7929 40.4586 31.601 40.4586 31.3817V29.4281H41.0946V31.3273C41.0946 31.4419 41.1196 31.5437 41.1695 31.6328C41.2204 31.722 41.2919 31.792 41.384 31.8429C41.476 31.8938 41.5832 31.9193 41.7057 31.9193C41.829 31.9193 41.9363 31.8938 42.0273 31.8429C42.1194 31.792 42.1904 31.722 42.2403 31.6328C42.2912 31.5437 42.3167 31.4419 42.3167 31.3273V29.4281ZM45.4707 30.4005C45.4501 30.329 45.4213 30.2658 45.384 30.211C45.3468 30.1552 45.3013 30.1082 45.2474 30.07C45.1946 30.0308 45.1338 30.0009 45.0653 29.9804C44.9977 29.9598 44.9228 29.9495 44.8406 29.9495C44.6868 29.9495 44.5517 29.9877 44.4352 30.0641C44.3196 30.1405 44.2295 30.2516 44.1649 30.3975C44.1003 30.5425 44.0679 30.7197 44.0679 30.9293C44.0679 31.1388 44.0998 31.317 44.1634 31.4639C44.2271 31.6108 44.3172 31.7229 44.4337 31.8003C44.5502 31.8767 44.6878 31.9149 44.8464 31.9149C44.9904 31.9149 45.1133 31.8894 45.2151 31.8385C45.3179 31.7866 45.3963 31.7136 45.4501 31.6196C45.505 31.5256 45.5324 31.4145 45.5324 31.2862L45.6617 31.3053H44.8861V30.8264H46.1449V31.2054C46.1449 31.4698 46.0891 31.697 45.9775 31.887C45.8658 32.0759 45.7121 32.2219 45.5162 32.3247C45.3204 32.4265 45.0961 32.4774 44.8435 32.4774C44.5615 32.4774 44.3137 32.4153 44.1003 32.2909C43.8868 32.1655 43.7203 31.9878 43.6008 31.7577C43.4824 31.5266 43.4231 31.2524 43.4231 30.9351C43.4231 30.6913 43.4584 30.4739 43.5289 30.283C43.6004 30.091 43.7002 29.9285 43.8285 29.7953C43.9568 29.6621 44.1061 29.5608 44.2765 29.4912C44.4469 29.4217 44.6315 29.387 44.8303 29.387C45.0007 29.387 45.1593 29.4119 45.3062 29.4619C45.4531 29.5108 45.5833 29.5804 45.6969 29.6704C45.8115 29.7605 45.905 29.8678 45.9775 29.9921C46.0499 30.1155 46.0964 30.2516 46.117 30.4005H45.4707ZM50.2342 30.4813H49.5909C49.5791 30.398 49.5551 30.3241 49.5189 30.2595C49.4827 30.1938 49.4361 30.138 49.3793 30.092C49.3225 30.046 49.2569 30.0107 49.1825 29.9863C49.1091 29.9618 49.0293 29.9495 48.9431 29.9495C48.7874 29.9495 48.6518 29.9882 48.5362 30.0656C48.4207 30.142 48.3311 30.2536 48.2674 30.4005C48.2038 30.5464 48.1719 30.7236 48.1719 30.9322C48.1719 31.1467 48.2038 31.3268 48.2674 31.4727C48.332 31.6186 48.4221 31.7288 48.5377 31.8032C48.6532 31.8777 48.7869 31.9149 48.9387 31.9149C49.0239 31.9149 49.1027 31.9036 49.1752 31.8811C49.2486 31.8586 49.3137 31.8258 49.3705 31.7827C49.4273 31.7386 49.4743 31.6852 49.5115 31.6226C49.5497 31.5599 49.5762 31.4884 49.5909 31.4081L50.2342 31.411C50.2176 31.5491 50.176 31.6823 50.1094 31.8106C50.0438 31.9379 49.9551 32.052 49.8435 32.1528C49.7329 32.2527 49.6007 32.332 49.4469 32.3908C49.2942 32.4486 49.1213 32.4774 48.9284 32.4774C48.6601 32.4774 48.4202 32.4167 48.2087 32.2953C47.9981 32.1739 47.8317 31.9981 47.7093 31.768C47.5878 31.5379 47.5271 31.2593 47.5271 30.9322C47.5271 30.6042 47.5888 30.3251 47.7122 30.0949C47.8356 29.8648 48.003 29.6895 48.2145 29.5691C48.4261 29.4477 48.664 29.387 48.9284 29.387C49.1027 29.387 49.2643 29.4114 49.4131 29.4604C49.563 29.5094 49.6956 29.5808 49.8112 29.6749C49.9267 29.7679 50.0207 29.882 50.0932 30.0171C50.1667 30.1522 50.2137 30.307 50.2342 30.4813ZM53.4547 30.9322C53.4547 31.2602 53.3925 31.5393 53.2682 31.7694C53.1448 31.9996 52.9763 32.1753 52.7629 32.2968C52.5504 32.4172 52.3114 32.4774 52.0461 32.4774C51.7787 32.4774 51.5388 32.4167 51.3263 32.2953C51.1138 32.1739 50.9459 31.9981 50.8225 31.768C50.6991 31.5379 50.6374 31.2593 50.6374 30.9322C50.6374 30.6042 50.6991 30.3251 50.8225 30.0949C50.9459 29.8648 51.1138 29.6895 51.3263 29.5691C51.5388 29.4477 51.7787 29.387 52.0461 29.387C52.3114 29.387 52.5504 29.4477 52.7629 29.5691C52.9763 29.6895 53.1448 29.8648 53.2682 30.0949C53.3925 30.3251 53.4547 30.6042 53.4547 30.9322ZM52.8099 30.9322C52.8099 30.7197 52.778 30.5405 52.7144 30.3946C52.6517 30.2487 52.5631 30.138 52.4485 30.0626C52.334 29.9872 52.1998 29.9495 52.0461 29.9495C51.8923 29.9495 51.7582 29.9872 51.6436 30.0626C51.529 30.138 51.4399 30.2487 51.3763 30.3946C51.3136 30.5405 51.2823 30.7197 51.2823 30.9322C51.2823 31.1447 51.3136 31.3239 51.3763 31.4698C51.4399 31.6157 51.529 31.7264 51.6436 31.8018C51.7582 31.8772 51.8923 31.9149 52.0461 31.9149C52.1998 31.9149 52.334 31.8772 52.4485 31.8018C52.5631 31.7264 52.6517 31.6157 52.7144 31.4698C52.778 31.3239 52.8099 31.1447 52.8099 30.9322ZM56.442 29.4281V32.4363H55.8926L54.5839 30.5429H54.5619V32.4363H53.9258V29.4281H54.484L55.7825 31.32H55.8089V29.4281H56.442ZM59.6217 30.4813H58.9783C58.9666 30.398 58.9426 30.3241 58.9064 30.2595C58.8701 30.1938 58.8236 30.138 58.7668 30.092C58.71 30.046 58.6444 30.0107 58.57 29.9863C58.4966 29.9618 58.4168 29.9495 58.3306 29.9495C58.1749 29.9495 58.0393 29.9882 57.9237 30.0656C57.8082 30.142 57.7186 30.2536 57.6549 30.4005C57.5913 30.5464 57.5594 30.7236 57.5594 30.9322C57.5594 31.1467 57.5913 31.3268 57.6549 31.4727C57.7195 31.6186 57.8096 31.7288 57.9252 31.8032C58.0407 31.8777 58.1744 31.9149 58.3262 31.9149C58.4114 31.9149 58.4902 31.9036 58.5627 31.8811C58.6361 31.8586 58.7012 31.8258 58.758 31.7827C58.8148 31.7386 58.8618 31.6852 58.899 31.6226C58.9372 31.5599 58.9637 31.4884 58.9783 31.4081L59.6217 31.411C59.6051 31.5491 59.5634 31.6823 59.4969 31.8106C59.4312 31.9379 59.3426 32.052 59.231 32.1528C59.1203 32.2527 58.9881 32.332 58.8344 32.3908C58.6816 32.4486 58.5088 32.4774 58.3159 32.4774C58.0476 32.4774 57.8077 32.4167 57.5961 32.2953C57.3856 32.1739 57.2191 31.9981 57.0967 31.768C56.9753 31.5379 56.9146 31.2593 56.9146 30.9322C56.9146 30.6042 56.9763 30.3251 57.0997 30.0949C57.2231 29.8648 57.3905 29.6895 57.602 29.5691C57.8135 29.4477 58.0515 29.387 58.3159 29.387C58.4902 29.387 58.6518 29.4114 58.8006 29.4604C58.9504 29.5094 59.0831 29.5808 59.1987 29.6749C59.3142 29.7679 59.4082 29.882 59.4807 30.0171C59.5541 30.1522 59.6011 30.307 59.6217 30.4813ZM60.0778 32.4363V29.4281H62.1048V29.9525H60.7138V30.6693H62.0005V31.1937H60.7138V31.9119H62.1107V32.4363H60.0778ZM62.6105 32.4363V29.4281H63.7973C64.0255 29.4281 64.2199 29.4717 64.3804 29.5588C64.541 29.645 64.6634 29.7649 64.7477 29.9187C64.8329 30.0714 64.8755 30.2477 64.8755 30.4475C64.8755 30.6472 64.8324 30.8235 64.7462 30.9763C64.66 31.129 64.5352 31.248 64.3716 31.3332C64.2091 31.4184 64.0123 31.461 63.7812 31.461H63.0247V30.9513H63.6783C63.8007 30.9513 63.9016 30.9302 63.9809 30.8881C64.0612 30.845 64.1209 30.7858 64.1601 30.7104C64.2003 30.634 64.2203 30.5464 64.2203 30.4475C64.2203 30.3476 64.2003 30.2604 64.1601 30.186C64.1209 30.1106 64.0612 30.0523 63.9809 30.0112C63.9006 29.9691 63.7988 29.9481 63.6754 29.9481H63.2465V32.4363H62.6105ZM65.174 29.9525V29.4281H67.6446V29.9525H66.7236V32.4363H66.095V29.9525H65.174Z" fill="#1E293B"/>
<path fill-rule="evenodd" clip-rule="evenodd" d="M22.622 8.91812C16.159 8.91812 13.5739 12.7959 13.5739 16.6737C13.5739 21.1978 16.8053 25.0756 22.622 25.0756H28.4387V8.91812H22.622ZM22.622 13.4422H23.9146V20.5515H22.622C20.0368 20.5515 18.4857 19.0004 18.4857 16.6737C18.4857 14.347 20.0368 13.4422 22.622 13.4422Z" fill="#152238"/>
<path d="M32.1869 8.91812L39.9425 25.0756H45.1129L52.8684 8.91812H47.0518L42.5277 19.2589L38.0036 8.91812H32.1869Z" fill="#152238"/>
<path fill-rule="evenodd" clip-rule="evenodd" d="M64.1143 8.91812C57.6514 8.91812 55.0662 12.7959 55.0662 16.6737C55.0662 21.1978 58.2977 25.0756 64.1143 25.0756H69.931V8.91812H64.1143ZM64.1143 13.4422H65.4069V20.5515H64.1143C61.5291 20.5515 59.978 19.0004 59.978 16.6737C59.978 14.347 61.5291 13.4422 64.1143 13.4422Z" fill="#152238"/>
<path d="M10.9616 0H0.413997C0.185555 0 0.000366211 0.231486 0.000366211 0.517039V3.61927C0.000366211 3.90482 0.185555 4.13631 0.413997 4.13631H10.9616C11.19 4.13631 11.3752 3.90482 11.3752 3.61927V0.517039C11.3752 0.231486 11.19 0 10.9616 0Z" fill="#32CD5A"/>
<path d="M3.49071 1.55072H1.42256C1.137 1.55072 0.905518 1.78221 0.905518 2.06776C0.905518 2.35331 1.137 2.5848 1.42256 2.5848H3.49071C3.77626 2.5848 4.00775 2.35331 4.00775 2.06776C4.00775 1.78221 3.77626 1.55072 3.49071 1.55072Z" fill="white"/>
<path d="M7.75628 2.71401C8.11322 2.71401 8.40258 2.42466 8.40258 2.06772C8.40258 1.71077 8.11322 1.42142 7.75628 1.42142C7.39934 1.42142 7.10999 1.71077 7.10999 2.06772C7.10999 2.42466 7.39934 2.71401 7.75628 2.71401Z" fill="white"/>
<path d="M9.8244 2.71401C10.1813 2.71401 10.4707 2.42466 10.4707 2.06772C10.4707 1.71077 10.1813 1.42142 9.8244 1.42142C9.46746 1.42142 9.1781 1.71077 9.1781 2.06772C9.1781 2.42466 9.46746 2.71401 9.8244 2.71401Z" fill="white"/>
<path d="M1.29284 5.04114H10.9873V17.9671C10.9873 22.4912 8.40212 25.0764 3.23174 25.0764H0.000244141V20.5523H2.58544C4.52433 20.5523 5.81693 19.5182 5.81693 17.3208V9.56523H1.29284V5.04114Z" fill="#152238"/>
<path d="M0.000244141 30.8927H12.0214" stroke="#32CD5A" stroke-width="0.775558"/>
<path d="M81.6942 7.62439H75.619C75.3334 7.62439 75.1019 7.85588 75.1019 8.14143V24.5574C75.1019 24.843 75.3334 25.0744 75.619 25.0744H81.6942C81.9797 25.0744 82.2112 24.843 82.2112 24.5574V8.14143C82.2112 7.85588 81.9797 7.62439 81.6942 7.62439Z" fill="#152238"/>
<path d="M77.1695 1.16074H76.3939C76.2511 1.16074 76.1354 1.27648 76.1354 1.41926V6.0726C76.1354 6.21538 76.2511 6.33112 76.3939 6.33112H77.1695C77.3122 6.33112 77.428 6.21538 77.428 6.0726V1.41926C77.428 1.27648 77.3122 1.16074 77.1695 1.16074Z" fill="#152238"/>
<path d="M80.9186 1.16074H80.143C80.0003 1.16074 79.8845 1.27648 79.8845 1.41926V6.0726C79.8845 6.21538 80.0003 6.33112 80.143 6.33112H80.9186C81.0614 6.33112 81.1771 6.21538 81.1771 6.0726V1.41926C81.1771 1.27648 81.0614 1.16074 80.9186 1.16074Z" fill="#152238"/>
<path d="M87.3813 20.5496H81.5646V25.0737H87.3813V20.5496Z" fill="#152238"/>
<path d="M78.3329 11.5017L76.394 16.0258H78.3329L77.0403 20.5499L80.9181 15.3795H78.9792L80.2718 11.5017H78.3329Z" fill="#32CD5A"/>
<path d="M75.3605 30.8914H87.6401" stroke="#32CD5A" stroke-width="0.775558"/>
</svg>
