<svg width="34" height="34" viewBox="0 0 34 34" fill="none" xmlns="http://www.w3.org/2000/svg">
<path d="M23.6406 5.3125C20.898 5.3125 18.4968 6.49188 17 8.48539C15.5032 6.49188 13.102 5.3125 10.3594 5.3125C8.17624 5.31496 6.08322 6.1833 4.53951 7.72701C2.9958 9.27072 2.12746 11.3637 2.125 13.5469C2.125 22.8438 15.9096 30.3689 16.4966 30.6797C16.6514 30.7629 16.8243 30.8065 17 30.8065C17.1757 30.8065 17.3486 30.7629 17.5034 30.6797C18.0904 30.3689 31.875 22.8438 31.875 13.5469C31.8725 11.3637 31.0042 9.27072 29.4605 7.72701C27.9168 6.1833 25.8238 5.31496 23.6406 5.3125ZM17 28.5281C14.5748 27.115 4.25 20.6776 4.25 13.5469C4.25211 11.9272 4.89645 10.3745 6.04172 9.22922C7.187 8.08395 8.73972 7.43961 10.3594 7.4375C12.9426 7.4375 15.1114 8.81344 16.0172 11.0234C16.0972 11.2183 16.2334 11.385 16.4084 11.5023C16.5834 11.6196 16.7893 11.6822 17 11.6822C17.2107 11.6822 17.4166 11.6196 17.5916 11.5023C17.7666 11.385 17.9028 11.2183 17.9828 11.0234C18.8886 8.80945 21.0574 7.4375 23.6406 7.4375C25.2603 7.43961 26.813 8.08395 27.9583 9.22922C29.1036 10.3745 29.7479 11.9272 29.75 13.5469C29.75 20.667 19.4225 27.1137 17 28.5281Z" fill="black"/>
</svg>
