<svg width="57" height="57" viewBox="0 0 57 57" fill="none" xmlns="http://www.w3.org/2000/svg">
<g clip-path="url(#clip0_1_75)">
<path d="M56.8709 26.0508L53.7537 18.2578C53.4892 17.5985 53.0329 17.0337 52.4437 16.6367C51.8546 16.2397 51.1599 16.0288 50.4495 16.0313H42.75V14.25C42.75 13.7776 42.5623 13.3245 42.2283 12.9905C41.8942 12.6564 41.4412 12.4688 40.9687 12.4688H7.125C6.18017 12.4688 5.27403 12.8441 4.60593 13.5122C3.93783 14.1803 3.5625 15.0864 3.5625 16.0313V40.9688C3.5625 41.9136 3.93783 42.8197 4.60593 43.4878C5.27403 44.1559 6.18017 44.5313 7.125 44.5313H10.9102C11.3026 46.0639 12.1939 47.4223 13.4436 48.3924C14.6934 49.3624 16.2304 49.889 17.8125 49.889C19.3946 49.889 20.9316 49.3624 22.1814 48.3924C23.4311 47.4223 24.3224 46.0639 24.7148 44.5313H35.8477C36.2401 46.0639 37.1314 47.4223 38.3811 48.3924C39.6309 49.3624 41.1679 49.889 42.75 49.889C44.3321 49.889 45.8691 49.3624 47.1189 48.3924C48.3686 47.4223 49.2599 46.0639 49.6523 44.5313H53.4375C54.3823 44.5313 55.2885 44.1559 55.9566 43.4878C56.6247 42.8197 57 41.9136 57 40.9688V26.7188C57.0006 26.4898 56.9567 26.263 56.8709 26.0508ZM42.75 19.5938H50.4495L52.5869 24.9375H42.75V19.5938ZM7.125 16.0313H39.1875V30.2813H7.125V16.0313ZM17.8125 46.3125C17.1079 46.3125 16.4191 46.1036 15.8333 45.7121C15.2474 45.3207 14.7908 44.7643 14.5212 44.1133C14.2515 43.4624 14.181 42.7461 14.3185 42.055C14.4559 41.3639 14.7952 40.7292 15.2934 40.2309C15.7917 39.7327 16.4264 39.3934 17.1175 39.256C17.8085 39.1185 18.5248 39.189 19.1758 39.4587C19.8268 39.7283 20.3832 40.1849 20.7746 40.7708C21.1661 41.3566 21.375 42.0454 21.375 42.75C21.375 43.6948 20.9997 44.601 20.3316 45.2691C19.6635 45.9372 18.7573 46.3125 17.8125 46.3125ZM35.8477 40.9688H24.7148C24.3224 39.4361 23.4311 38.0777 22.1814 37.1077C20.9316 36.1376 19.3946 35.611 17.8125 35.611C16.2304 35.611 14.6934 36.1376 13.4436 37.1077C12.1939 38.0777 11.3026 39.4361 10.9102 40.9688H7.125V33.8438H39.1875V36.5847C38.3684 37.0581 37.6515 37.6894 37.0782 38.4419C36.5048 39.1945 36.0866 40.0534 35.8477 40.9688ZM42.75 46.3125C42.0454 46.3125 41.3566 46.1036 40.7708 45.7121C40.1849 45.3207 39.7283 44.7643 39.4587 44.1133C39.189 43.4624 39.1185 42.7461 39.256 42.055C39.3934 41.3639 39.7327 40.7292 40.2309 40.2309C40.7292 39.7327 41.3639 39.3934 42.055 39.256C42.746 39.1185 43.4623 39.189 44.1133 39.4587C44.7643 39.7283 45.3207 40.1849 45.7121 40.7708C46.1036 41.3566 46.3125 42.0454 46.3125 42.75C46.3125 43.6948 45.9372 44.601 45.2691 45.2691C44.601 45.9372 43.6948 46.3125 42.75 46.3125ZM53.4375 40.9688H49.6523C49.2552 39.4399 48.3622 38.0859 47.1132 37.1189C45.8641 36.1519 44.3296 35.6265 42.75 35.625V28.5H53.4375V40.9688Z" fill="black"/>
</g>
<defs>
<clipPath id="clip0_1_75">
<rect width="57" height="57" fill="white"/>
</clipPath>
</defs>
</svg>
