<svg width="37" height="37" viewBox="0 0 37 37" fill="none" xmlns="http://www.w3.org/2000/svg">
<path d="M36.1986 7.24625C36.1018 7.13006 35.9807 7.03658 35.8437 6.97242C35.7068 6.90827 35.5575 6.87501 35.4062 6.875H7.39062L6.29578 0.847344C6.25271 0.609721 6.12762 0.394749 5.94231 0.239902C5.75699 0.0850544 5.52321 0.000153792 5.28172 0H1.03125C0.757745 0 0.495443 0.108649 0.302046 0.302046C0.108649 0.495443 0 0.757746 0 1.03125C0 1.30475 0.108649 1.56706 0.302046 1.76045C0.495443 1.95385 0.757745 2.0625 1.03125 2.0625H4.42062L8.85672 26.4584C8.9958 27.2277 9.37059 27.9346 9.92922 28.4814C9.25414 29.0206 8.74986 29.744 8.47743 30.5639C8.205 31.3839 8.1761 32.2652 8.39423 33.1012C8.61237 33.9372 9.06818 34.6921 9.70648 35.2744C10.3448 35.8567 11.1382 36.2415 11.9907 36.3821C12.8432 36.5228 13.7181 36.4133 14.5097 36.0669C15.3012 35.7206 15.9754 35.1522 16.4505 34.4305C16.9257 33.7089 17.1815 32.865 17.1869 32.0011C17.1923 31.1371 16.9471 30.29 16.4811 29.5625H25.4564C24.922 30.3988 24.6812 31.3892 24.772 32.3775C24.8628 33.3659 25.28 34.2958 25.9578 35.0208C26.6356 35.7457 27.5355 36.2244 28.5155 36.3813C29.4955 36.5382 30.4999 36.3644 31.3701 35.8873C32.2404 35.4102 32.9271 34.657 33.3219 33.7464C33.7168 32.8359 33.7972 31.8198 33.5506 30.8584C33.304 29.8971 32.7444 29.0452 31.9601 28.4371C31.1757 27.829 30.2112 27.4993 29.2187 27.5H12.5761C12.1736 27.5001 11.7838 27.3588 11.4747 27.101C11.1657 26.8431 10.9569 26.4849 10.8848 26.0889L10.2661 22.6875H30.6109C31.4965 22.6877 32.354 22.3771 33.0341 21.8099C33.7141 21.2426 34.1734 20.4547 34.332 19.5834L36.4203 8.09016C36.4473 7.94183 36.4414 7.7894 36.4031 7.6436C36.3648 7.49779 36.295 7.36216 36.1986 7.24625ZM15.125 31.9688C15.125 32.4447 14.9839 32.9099 14.7195 33.3056C14.4551 33.7013 14.0793 34.0097 13.6396 34.1918C13.1999 34.374 12.7161 34.4216 12.2493 34.3288C11.7825 34.2359 11.3538 34.0067 11.0173 33.6702C10.6808 33.3337 10.4516 32.905 10.3587 32.4382C10.2659 31.9714 10.3135 31.4876 10.4957 31.0479C10.6778 30.6082 10.9862 30.2324 11.3819 29.968C11.7776 29.7036 12.2428 29.5625 12.7187 29.5625C13.3569 29.5625 13.969 29.816 14.4202 30.2673C14.8715 30.7185 15.125 31.3306 15.125 31.9688ZM31.625 31.9688C31.625 32.4447 31.4839 32.9099 31.2195 33.3056C30.9551 33.7013 30.5793 34.0097 30.1396 34.1918C29.6999 34.374 29.2161 34.4216 28.7493 34.3288C28.2825 34.2359 27.8538 34.0067 27.5173 33.6702C27.1807 33.3337 26.9516 32.905 26.8587 32.4382C26.7659 31.9714 26.8135 31.4876 26.9957 31.0479C27.1778 30.6082 27.4862 30.2324 27.8819 29.968C28.2776 29.7036 28.7428 29.5625 29.2187 29.5625C29.8569 29.5625 30.469 29.816 30.9202 30.2673C31.3715 30.7185 31.625 31.3306 31.625 31.9688ZM32.3022 19.2139C32.2301 19.6099 32.0214 19.9681 31.7123 20.226C31.4032 20.4838 31.0135 20.6251 30.6109 20.625H9.89141L7.76703 8.9375H34.1705L32.3022 19.2139Z" fill="black"/>
</svg>
