<svg width="34" height="59" viewBox="0 0 34 59" fill="none" xmlns="http://www.w3.org/2000/svg">
<path d="M7.5 1.875C7.5 1.37772 7.69754 0.900806 8.04918 0.549175C8.40081 0.197544 8.87772 0 9.375 0L24.375 0C24.8723 0 25.3492 0.197544 25.7008 0.549175C26.0525 0.900806 26.25 1.37772 26.25 1.875C26.25 2.37228 26.0525 2.84919 25.7008 3.20083C25.3492 3.55246 24.8723 3.75 24.375 3.75H9.375C8.87772 3.75 8.40081 3.55246 8.04918 3.20083C7.69754 2.84919 7.5 2.37228 7.5 1.875ZM33.75 13.125V52.5C33.75 53.9918 33.1574 55.4226 32.1025 56.4775C31.0476 57.5324 29.6168 58.125 28.125 58.125H5.625C4.13316 58.125 2.70242 57.5324 1.64752 56.4775C0.592632 55.4226 0 53.9918 0 52.5V13.125C0 11.6332 0.592632 10.2024 1.64752 9.14752C2.70242 8.09263 4.13316 7.5 5.625 7.5H28.125C29.6168 7.5 31.0476 8.09263 32.1025 9.14752C33.1574 10.2024 33.75 11.6332 33.75 13.125ZM30 13.125C30 12.6277 29.8025 12.1508 29.4508 11.7992C29.0992 11.4475 28.6223 11.25 28.125 11.25H5.625C5.12772 11.25 4.65081 11.4475 4.29918 11.7992C3.94754 12.1508 3.75 12.6277 3.75 13.125V52.5C3.75 52.9973 3.94754 53.4742 4.29918 53.8258C4.65081 54.1775 5.12772 54.375 5.625 54.375H28.125C28.6223 54.375 29.0992 54.1775 29.4508 53.8258C29.8025 53.4742 30 52.9973 30 52.5V13.125ZM24.375 45H9.375C8.87772 45 8.40081 45.1975 8.04918 45.5492C7.69754 45.9008 7.5 46.3777 7.5 46.875C7.5 47.3723 7.69754 47.8492 8.04918 48.2008C8.40081 48.5525 8.87772 48.75 9.375 48.75H24.375C24.8723 48.75 25.3492 48.5525 25.7008 48.2008C26.0525 47.8492 26.25 47.3723 26.25 46.875C26.25 46.3777 26.0525 45.9008 25.7008 45.5492C25.3492 45.1975 24.8723 45 24.375 45Z" fill="black"/>
</svg>
