<svg width="37" height="40" viewBox="0 0 37 40" fill="none" xmlns="http://www.w3.org/2000/svg">
<path d="M31.2697 5.38945C29.5875 3.69031 27.5866 2.33968 25.3817 1.41487C23.1768 0.490073 20.8111 0.00927129 18.4201 0H18.2812C13.4328 0 8.78285 1.92605 5.35445 5.35445C1.92605 8.78285 0 13.4328 0 18.2812V28.125C0 29.2439 0.444474 30.3169 1.23564 31.1081C2.02681 31.8993 3.09987 32.3438 4.21875 32.3438H7.03125C8.15013 32.3438 9.22319 31.8993 10.0144 31.1081C10.8055 30.3169 11.25 29.2439 11.25 28.125V21.0938C11.25 19.9749 10.8055 18.9018 10.0144 18.1106C9.22319 17.3195 8.15013 16.875 7.03125 16.875H2.87578C3.14698 13.9429 4.24834 11.1488 6.05079 8.82018C7.85323 6.49161 10.2821 4.72505 13.0526 3.72756C15.8232 2.73006 18.8207 2.54295 21.6938 3.18816C24.5669 3.83337 27.1966 5.28416 29.2746 7.37051C31.8145 9.92338 33.3767 13.2874 33.6885 16.875H29.5312C28.4124 16.875 27.3393 17.3195 26.5481 18.1106C25.757 18.9018 25.3125 19.9749 25.3125 21.0938V28.125C25.3125 29.2439 25.757 30.3169 26.5481 31.1081C27.3393 31.8993 28.4124 32.3438 29.5312 32.3438H33.75C33.75 33.4626 33.3055 34.5357 32.5144 35.3269C31.7232 36.118 30.6501 36.5625 29.5312 36.5625H19.6875C19.3145 36.5625 18.9569 36.7107 18.6931 36.9744C18.4294 37.2381 18.2812 37.5958 18.2812 37.9688C18.2812 38.3417 18.4294 38.6994 18.6931 38.9631C18.9569 39.2268 19.3145 39.375 19.6875 39.375H29.5312C31.3961 39.375 33.1845 38.6342 34.5031 37.3156C35.8217 35.997 36.5625 34.2086 36.5625 32.3438V18.2812C36.5717 15.8899 36.1089 13.5202 35.2006 11.308C34.2924 9.09578 32.9566 7.08452 31.2697 5.38945ZM7.03125 19.6875C7.40421 19.6875 7.7619 19.8357 8.02562 20.0994C8.28934 20.3631 8.4375 20.7208 8.4375 21.0938V28.125C8.4375 28.498 8.28934 28.8556 8.02562 29.1194C7.7619 29.3831 7.40421 29.5312 7.03125 29.5312H4.21875C3.84579 29.5312 3.4881 29.3831 3.22438 29.1194C2.96066 28.8556 2.8125 28.498 2.8125 28.125V19.6875H7.03125ZM29.5312 29.5312C29.1583 29.5312 28.8006 29.3831 28.5369 29.1194C28.2732 28.8556 28.125 28.498 28.125 28.125V21.0938C28.125 20.7208 28.2732 20.3631 28.5369 20.0994C28.8006 19.8357 29.1583 19.6875 29.5312 19.6875H33.75V29.5312H29.5312Z" fill="black"/>
</svg>
