<svg width="47" height="30" viewBox="0 0 47 30" fill="none" xmlns="http://www.w3.org/2000/svg">
<path d="M13.25 8.28125C13.25 8.72052 13.0755 9.14179 12.7649 9.4524C12.4543 9.763 12.033 9.9375 11.5938 9.9375H1.65625C1.21699 9.9375 0.795711 9.763 0.485104 9.4524C0.174497 9.14179 0 8.72052 0 8.28125C0 7.84199 0.174497 7.42071 0.485104 7.1101C0.795711 6.7995 1.21699 6.625 1.65625 6.625H11.5938C12.033 6.625 12.4543 6.7995 12.7649 7.1101C13.0755 7.42071 13.25 7.84199 13.25 8.28125ZM11.5938 13.25H1.65625C1.21699 13.25 0.795711 13.4245 0.485104 13.7351C0.174497 14.0457 0 14.467 0 14.9062C0 15.3455 0.174497 15.7668 0.485104 16.0774C0.795711 16.388 1.21699 16.5625 1.65625 16.5625H11.5938C12.033 16.5625 12.4543 16.388 12.7649 16.0774C13.0755 15.7668 13.25 15.3455 13.25 14.9062C13.25 14.467 13.0755 14.0457 12.7649 13.7351C12.4543 13.4245 12.033 13.25 11.5938 13.25ZM11.5938 19.875H1.65625C1.21699 19.875 0.795711 20.0495 0.485104 20.3601C0.174497 20.6707 0 21.092 0 21.5312C0 21.9705 0.174497 22.3918 0.485104 22.7024C0.795711 23.013 1.21699 23.1875 1.65625 23.1875H11.5938C12.033 23.1875 12.4543 23.013 12.7649 22.7024C13.0755 22.3918 13.25 21.9705 13.25 21.5312C13.25 21.092 13.0755 20.6707 12.7649 20.3601C12.4543 20.0495 12.033 19.875 11.5938 19.875ZM11.5938 26.5H1.65625C1.21699 26.5 0.795711 26.6745 0.485104 26.9851C0.174497 27.2957 0 27.717 0 28.1562C0 28.5955 0.174497 29.0168 0.485104 29.3274C0.795711 29.638 1.21699 29.8125 1.65625 29.8125H11.5938C12.033 29.8125 12.4543 29.638 12.7649 29.3274C13.0755 29.0168 13.25 28.5955 13.25 28.1562C13.25 27.717 13.0755 27.2957 12.7649 26.9851C12.4543 26.6745 12.033 26.5 11.5938 26.5ZM28.1562 13.25H18.2188C17.7795 13.25 17.3582 13.4245 17.0476 13.7351C16.737 14.0457 16.5625 14.467 16.5625 14.9062C16.5625 15.3455 16.737 15.7668 17.0476 16.0774C17.3582 16.388 17.7795 16.5625 18.2188 16.5625H28.1562C28.5955 16.5625 29.0168 16.388 29.3274 16.0774C29.638 15.7668 29.8125 15.3455 29.8125 14.9062C29.8125 14.467 29.638 14.0457 29.3274 13.7351C29.0168 13.4245 28.5955 13.25 28.1562 13.25ZM28.1562 19.875H18.2188C17.7795 19.875 17.3582 20.0495 17.0476 20.3601C16.737 20.6707 16.5625 21.092 16.5625 21.5312C16.5625 21.9705 16.737 22.3918 17.0476 22.7024C17.3582 23.013 17.7795 23.1875 18.2188 23.1875H28.1562C28.5955 23.1875 29.0168 23.013 29.3274 22.7024C29.638 22.3918 29.8125 21.9705 29.8125 21.5312C29.8125 21.092 29.638 20.6707 29.3274 20.3601C29.0168 20.0495 28.5955 19.875 28.1562 19.875ZM28.1562 26.5H18.2188C17.7795 26.5 17.3582 26.6745 17.0476 26.9851C16.737 27.2957 16.5625 27.717 16.5625 28.1562C16.5625 28.5955 16.737 29.0168 17.0476 29.3274C17.3582 29.638 17.7795 29.8125 18.2188 29.8125H28.1562C28.5955 29.8125 29.0168 29.638 29.3274 29.3274C29.638 29.0168 29.8125 28.5955 29.8125 28.1562C29.8125 27.717 29.638 27.2957 29.3274 26.9851C29.0168 26.6745 28.5955 26.5 28.1562 26.5ZM44.7188 6.625H34.7812C34.342 6.625 33.9207 6.7995 33.6101 7.1101C33.2995 7.42071 33.125 7.84199 33.125 8.28125C33.125 8.72052 33.2995 9.14179 33.6101 9.4524C33.9207 9.763 34.342 9.9375 34.7812 9.9375H44.7188C45.158 9.9375 45.5793 9.763 45.8899 9.4524C46.2005 9.14179 46.375 8.72052 46.375 8.28125C46.375 7.84199 46.2005 7.42071 45.8899 7.1101C45.5793 6.7995 45.158 6.625 44.7188 6.625ZM34.7812 3.3125H44.7188C45.158 3.3125 45.5793 3.138 45.8899 2.8274C46.2005 2.51679 46.375 2.09551 46.375 1.65625C46.375 1.21699 46.2005 0.795712 45.8899 0.485105C45.5793 0.174498 45.158 0 44.7188 0H34.7812C34.342 0 33.9207 0.174498 33.6101 0.485105C33.2995 0.795712 33.125 1.21699 33.125 1.65625C33.125 2.09551 33.2995 2.51679 33.6101 2.8274C33.9207 3.138 34.342 3.3125 34.7812 3.3125ZM44.7188 13.25H34.7812C34.342 13.25 33.9207 13.4245 33.6101 13.7351C33.2995 14.0457 33.125 14.467 33.125 14.9062C33.125 15.3455 33.2995 15.7668 33.6101 16.0774C33.9207 16.388 34.342 16.5625 34.7812 16.5625H44.7188C45.158 16.5625 45.5793 16.388 45.8899 16.0774C46.2005 15.7668 46.375 15.3455 46.375 14.9062C46.375 14.467 46.2005 14.0457 45.8899 13.7351C45.5793 13.4245 45.158 13.25 44.7188 13.25ZM44.7188 19.875H34.7812C34.342 19.875 33.9207 20.0495 33.6101 20.3601C33.2995 20.6707 33.125 21.092 33.125 21.5312C33.125 21.9705 33.2995 22.3918 33.6101 22.7024C33.9207 23.013 34.342 23.1875 34.7812 23.1875H44.7188C45.158 23.1875 45.5793 23.013 45.8899 22.7024C46.2005 22.3918 46.375 21.9705 46.375 21.5312C46.375 21.092 46.2005 20.6707 45.8899 20.3601C45.5793 20.0495 45.158 19.875 44.7188 19.875ZM44.7188 26.5H34.7812C34.342 26.5 33.9207 26.6745 33.6101 26.9851C33.2995 27.2957 33.125 27.717 33.125 28.1562C33.125 28.5955 33.2995 29.0168 33.6101 29.3274C33.9207 29.638 34.342 29.8125 34.7812 29.8125H44.7188C45.158 29.8125 45.5793 29.638 45.8899 29.3274C46.2005 29.0168 46.375 28.5955 46.375 28.1562C46.375 27.717 46.2005 27.2957 45.8899 26.9851C45.5793 26.6745 45.158 26.5 44.7188 26.5Z" fill="black"/>
</svg>
